PathFileType	4	(X/Y/Z)	/Users/visionmauri/Downloads/Videos/OAW05-top_Sports2D/OAW05-top_Sports2D_m_person00.trc
DataRate	CameraRate	NumFrames	NumMarkers	Units	OrigDataRate	OrigDataStartFrame	OrigNumFrames
28.0	28.0	9	22	m	28.0	1745	1995
Frame#	Time	Hip			RHip			RKnee			RAnkle			RBigToe			RSmallToe			RHeel			LHip			LKnee			LAnkle			LBigToe			LSmallToe			LHeel			Neck			Head			Nose			RShoulder			RElbow			RWrist			LShoulder			LElbow			LWrist			
		X1	Y1	Z1	X2	Y2	Z2	X3	Y3	Z3	X4	Y4	Z4	X5	Y5	Z5	X6	Y6	Z6	X7	Y7	Z7	X8	Y8	Z8	X9	Y9	Z9	X10	Y10	Z10	X11	Y11	Z11	X12	Y12	Z12	X13	Y13	Z13	X14	Y14	Z14	X15	Y15	Z15	X16	Y16	Z16	X17	Y17	Z17	X18	Y18	Z18	X19	Y19	Z19	X20	Y20	Z20	X21	Y21	Z21	X22	Y22	Z22
1932	69.03163686382393	5.313071663454799	0.3636954008797206	0.0301	5.323745341292147	0.3310169850370487	0.0301	5.166974388497326	0.27562209199875676	0.129	5.040455115196082	0.21617274437506928	0.023	4.985673212921716	0.2081179840206981	0.2179	4.996137740584117	0.18275404192581773	0.1804	5.013718821214109	0.2078577840805222	-0.0119	5.2976185366190105	0.39678938034831523	0.0301	5.128887138506972	0.34273257707413707	0.129	4.994798331944653	0.2903779640775952	0.023	4.93930744436737	0.2620843771307221	0.2179	4.928915305048654	0.28328081102873715	0.1804	4.964690671632439	0.2787307503596588	-0.0119	5.5374938595661725	0.4459916938813203	0.0008	5.621265906771857	0.4813839185616376	0.0655	5.560116882428543	0.4638336336477081	0.1076	5.533964721125706	0.36814981299227506	-0.01275	5.415787008315684	0.2963327317394466	0.0702	5.310327263207713	0.24552868787791834	0.1076	5.489080907615511	0.4986522366939829	-0.01275	5.359495189312502	0.47856858141552977	0.0702	5.254332827223169	0.46148832248929716	0.1076
1933	69.06736752472654	5.313078975734036	0.3636994368140572	0.0301	5.323755685660599	0.3310232751925017	0.0301	5.166980733768658	0.27563550332916414	0.129	5.040454775426313	0.21617370149533494	0.023	4.985672960363585	0.20812839841686168	0.2179	4.996134179444198	0.18277345859105104	0.1804	5.013717297950524	0.2078469558820686	-0.0119	5.297635287160924	0.3967786288315925	0.0301	5.128899952416467	0.34274003255577734	0.129	4.994813896685189	0.2903840027933233	0.023	4.939318769053704	0.2621361148528526	0.2179	4.928928390546248	0.2833154222234498	0.1804	4.964713839480944	0.27872580268871633	-0.0119	5.53750605769799	0.44599593894499906	0.0008	5.621255882957567	0.48140079048165585	0.0655	5.560105095203458	0.4638606559653955	0.1076	5.533970217010811	0.368173016463184	-0.01275	5.415786841928632	0.2963772444249015	0.0702	5.310334752339326	0.2456023845048196	0.1076	5.489098462047654	0.4986292501668964	-0.01275	5.359519638881048	0.47852168900744685	0.0702	5.254352330630235	0.46143702447698187	0.1076
1934	69.10309818562914	5.313135165776978	0.3637157665441771	0.0301	5.323801617959383	0.3310788681846159	0.0301	5.1669975900511105	0.275759687262824	0.129	5.040464044986015	0.21618852664349	0.023	4.9856643929430495	0.208184395140111	0.2179	4.99612863920929	0.1828863908399559	0.1804	5.013746536152835	0.20779589818355237	-0.0119	5.297720495472278	0.39671833318296407	0.0301	5.128983508564084	0.342799788337937	0.129	4.9949142720829585	0.2904233157787012	0.023	4.939372086175422	0.26245212722171346	0.2179	4.929020789314394	0.28350026117212057	0.1804	4.964862623965352	0.2787058097043349	-0.0119	5.537549163782867	0.44605146688189773	0.0008	5.621201758174096	0.48152758823602326	0.0655	5.560023093337411	0.4640291308488961	0.1076	5.533994468263356	0.3683362006119304	-0.01275	5.415801192793622	0.2966480152901648	0.0702	5.310346820545316	0.24608276491172681	0.1076	5.489195433834592	0.4985025499922951	-0.01275	5.359659195898886	0.47822928371102974	0.0702	5.254466236872279	0.46112203079293446	0.1076
1935	69.13882884653174	5.31317620390648	0.363715176760227	0.0301	5.323811613667039	0.33112327223158805	0.0301	5.16698780602928	0.275864983227716	0.129	5.040478010709798	0.21620458383905686	0.023	4.9856540548411505	0.20821012195365055	0.2179	4.996139898039985	0.18294325122615168	0.1804	5.013795661041943	0.20778122398938437	-0.0119	5.297752694665433	0.39668753541714735	0.0301	5.1290341467596114	0.3428444314193704	0.129	4.994973348272437	0.29044608544259215	0.023	4.93938698226859	0.26262438749411277	0.2179	4.929083348976545	0.2835761985169887	0.1804	4.964950393071144	0.27870318048754367	-0.0119	5.5375451771261	0.44610694666280115	0.0008	5.621179312265848	0.4816179265142936	0.0655	5.559969286442068	0.46412119064733837	0.1076	5.534000306438897	0.3684427180693412	-0.01275	5.415822791241385	0.2967926671604889	0.0702	5.3103227674142035	0.24637001085714158	0.1076	5.489239914410998	0.4984446473777092	-0.01275	5.359726399867979	0.47806376393693906	0.0702	5.25452358570174	0.4609497146042372	0.1076
1936	69.17455950743434	5.312928981397231	0.36362378598657813	0.0301	5.323576055466671	0.3308838529907062	0.0301	5.166881960084427	0.2753409868118927	0.129	5.040446778868383	0.21614678186036637	0.023	4.985686179869183	0.20794362864837793	0.2179	4.996186460879139	0.18241079128247162	0.1804	5.013706105882206	0.20803757739387374	-0.0119	5.297335811232351	0.39696964404895885	0.0301	5.128652280299649	0.342582770833381	0.129	4.994513801658216	0.29026479964746554	0.023	4.939118160226849	0.26115276122244263	0.2179	4.9286702934664275	0.28267862491879053	0.1804	4.9642680490867654	0.2788082747086302	-0.0119	5.537305377272923	0.44588391973341657	0.0008	5.621441937825027	0.48105825086803206	0.0655	5.560339027648422	0.4633359497220521	0.1076	5.533877434563297	0.36770731848637	-0.01275	5.41577508557189	0.2955263701234682	0.0702	5.3102221856441405	0.24416900267516375	0.1076	5.4887769224534715	0.4990494674683096	-0.01275	5.359064190068072	0.47941632534330625	0.0702	5.253984808919929	0.462415435149736	0.1076
1937	69.21029016833694	5.312351414863375	0.36349597170376924	0.0301	5.323184097161834	0.3302993361189657	0.0301	5.166783376445034	0.2740176456956304	0.129	5.040326072309141	0.21597658511977746	0.023	4.985788418984951	0.20742181324662592	0.2179	4.996192050761964	0.18133861775125426	0.1804	5.013310571385173	0.20848466925896264	-0.0119	5.296563284773348	0.39754141693996764	0.0301	5.127829649186249	0.34196498994242636	0.129	4.993534560692524	0.28988133148646095	0.023	4.938651923813647	0.2581073325013567	0.2179	4.927737958394805	0.28097946328917284	0.1804	4.962813253570097	0.2789733447088726	-0.0119	5.53698347101602	0.4452626875178976	0.0008	5.6219402919661	0.4797651103902083	0.0655	5.561161714003362	0.46171042229561515	0.1076	5.533669631281612	0.3660744298091751	-0.01275	5.415589085515011	0.2929253544833978	0.0702	5.310208880348708	0.23945333569586352	0.1076	5.487871648414545	0.500230847194388	-0.01275	5.357750003409987	0.48225455214695095	0.0702	5.252900555559652	0.46545247035624204	0.1076
1938	69.24602082923954	5.312868511045831	0.363810190186153	0.0301	5.323903636689367	0.3307641299192877	0.0301	5.167217784755684	0.2749714162477257	0.129	5.04032314211148	0.21604712340696053	0.023	4.9857601169129095	0.20812332073838458	0.2179	4.995946792415402	0.18269829116045191	0.1804	5.013231091040091	0.20773106480104644	-0.0119	5.297723648646657	0.39682665206744155	0.0301	5.128727852734138	0.34250305269971065	0.129	4.994630699750714	0.2903179236404248	0.023	4.939445984450037	0.26174766646841535	0.2179	4.9286485969016915	0.28342678511672964	0.1804	4.9644398099274785	0.2786383011993913	-0.0119	5.537826390958584	0.4455857031071408	0.0008	5.621225889492869	0.4809561972965416	0.0655	5.560329426709416	0.4636523556105109	0.1076	5.534040042078363	0.3677346425916884	-0.01275	5.4155821139207605	0.2960859303695522	0.0702	5.310736936141494	0.24466760452138422	0.1076	5.489092567587245	0.4986342464023805	-0.01275	5.359468597905454	0.47896498161902884	0.0702	5.254277494925991	0.46183222030445925	0.1076
1939	69.28175149014214	5.316750626487326	0.3649556216036814	0.0301	5.327066310331488	0.3346091029570988	0.0301	5.168376371577221	0.2835351413399083	0.129	5.040975470770544	0.21707384972859334	0.023	4.985163504742273	0.21196634876402057	0.2179	4.995564970911918	0.1904775750226885	0.1804	5.015268458465032	0.20421976043762677	-0.0119	5.303587684973142	0.3926929495593561	0.0301	5.134488801938948	0.34663392284074435	0.129	5.0015268448233385	0.29302900852092983	0.023	4.943119406115038	0.2835264974694944	0.2179	4.93502403807205	0.2961744697357752	0.1804	4.974682368207432	0.27726047499593887	-0.0119	5.540784815481247	0.4494272153995605	0.0008	5.617491915520233	0.4896956891318777	0.0655	5.554662553982271	0.475275419043148	0.1076	5.5357008941976655	0.37899410699020086	-0.01275	5.416583773324776	0.314760410524647	0.0702	5.31156589399777	0.2777853933461528	0.1076	5.495765312342926	0.4899216319202905	-0.01275	5.36907833263766	0.45881562414631444	0.0702	5.262147340997661	0.44012785507009183	0.1076
1940	69.31748215104474	5.322945609520394	0.3662563809790996	0.0301	5.330867528714894	0.34129043611714144	0.0301	5.168726683282914	0.2993586198524524	0.129	5.042832097406952	0.21949844761738668	0.023	4.9839742177307915	0.21780293722338775	0.2179	4.995960166219995	0.2027521938309414	0.1804	5.020837780582766	0.19968409632203	-0.0119	5.311371208345633	0.3867046703588956	0.0301	5.143469901918802	0.3538455989750761	0.129	5.012082940578076	0.2971754473339086	0.023	4.947834468474152	0.316894453495972	0.2179	4.945342994195786	0.31429828385284614	0.1804	4.990546698394982	0.2756500094726884	-0.0119	5.543843129980746	0.4568272035417779	0.0008	5.612566302009479	0.5044521136818396	0.0655	5.5456425701462875	0.49359950060247204	0.1076	5.537607594924487	0.3971671317808237	-0.01275	5.418244594968925	0.34310842503102856	0.0702	5.310859727730508	0.3295997624141308	0.1076	5.5050933048354596	0.47722013183307427	-0.01275	5.3828975575377855	0.42778272011111385	0.0702	5.273595965945791	0.40713594967015554	0.1076
